# xmcd
#
# Track frame offsets: 
#        150
#        14360
#        32933
#        54291
#        83278
#        98987
#        118205
#        136683
#        159922
#        172779
#        192384
#
# Disc length: 2767 seconds
#
# Revision: 0
# Processed by: cddbd v1.5.2PL0 Copyright (c) Steve Scherf et al.
# Submitted via: ExactAudioCopy v1.0b3
#
DISCID=7c0acd0b
DTITLE=Palabra de Vida - Aún hoy Dios Obra
DYEAR=1900
DGENRE=Himnos
TTITLE0=Dios, hoy obra
TTITLE1=A la roca voy
TTITLE2=¿Quien podrá sacarme?
TTITLE3=Por cada montaña
TTITLE4=Por siempre
TTITLE5=Uno y el mismo
TTITLE6=Necesitamos a Jesús
TTITLE7=A través de la cruz
TTITLE8=Grande es la gloria del Señor
TTITLE9=Vuelve al hogar
TTITLE10=Sería Dios
EXTD=
EXTT0=
EXTT1=
EXTT2=
EXTT3=
EXTT4=
EXTT5=
EXTT6=
EXTT7=
EXTT8=
EXTT9=
EXTT10=
PLAYORDER=
